<svg width="19" height="22" viewBox="0 0 19 22" fill="none" xmlns="http://www.w3.org/2000/svg">
<path d="M17.5 20.5C17.5 16.8235 13.8741 13.85 9.41001 13.85C4.94591 13.85 1.32001 16.8235 1.32001 20.5M9.41001 11C10.6589 11 11.8566 10.4996 12.7397 9.60876C13.6228 8.71796 14.119 7.50978 14.119 6.25C14.119 4.99022 13.6228 3.78204 12.7397 2.89124C11.8566 2.00044 10.6589 1.5 9.41001 1.5C8.16111 1.5 6.96337 2.00044 6.08027 2.89124C5.19717 3.78204 4.70104 4.99022 4.70104 6.25C4.70104 7.50978 5.19717 8.71796 6.08027 9.60876C6.96337 10.4996 8.16111 11 9.41001 11Z" stroke="#6F2877" stroke-opacity="0.25" stroke-width="1.5" stroke-linecap="round" stroke-linejoin="round"/>
</svg>
